<svg width="17" height="16" viewBox="0 0 17 16" fill="none" xmlns="http://www.w3.org/2000/svg">
<path d="M16.9941 7.97095C16.9941 8.53251 16.5514 8.97239 16.0497 8.97239H15.1052L15.1259 13.9671C15.1259 14.0545 15.12 14.1356 15.1111 14.2198V14.7252C15.1111 15.4147 14.5828 15.9731 13.9306 15.9731H13.4583C13.4259 15.9731 13.3934 15.945 13.3609 15.97C13.3196 15.945 13.2783 15.9731 13.237 15.9731H11.5694C10.9172 15.9731 10.3889 15.4147 10.3889 14.7252V11.9798C10.3889 11.4276 9.96684 10.9815 9.44444 10.9815H7.55555C7.03316 10.9815 6.61111 11.4276 6.61111 11.9798V14.7252C6.61111 15.4147 6.08281 15.9731 5.43055 15.9731H3.78073C3.73646 15.9731 3.69219 15.97 3.64792 15.9669C3.6125 15.97 3.57708 15.9731 3.54167 15.9731H3.06944C2.41748 15.9731 1.88889 15.4147 1.88889 14.7252V11.2311C1.88889 11.203 1.88977 11.1718 1.89154 11.1437V8.97239H0.94592C0.413785 8.97239 0 8.53251 0 7.97095C0 7.69018 0.0886597 7.4406 0.295434 7.22221L7.8625 0.250079C8.0691 0.0312599 8.30521 0 8.5118 0C8.7184 0 8.95451 0.0625197 9.13455 0.218819L16.6694 7.22221C16.9056 7.4406 17.0266 7.69018 16.9941 7.97095Z" fill="#FF8F52"/>
</svg>
