<svg width="19" height="18" viewBox="0 0 19 18" fill="none" xmlns="http://www.w3.org/2000/svg">
<path d="M12.3995 5.1372L17.3891 5.86181C17.8023 5.91992 18.1495 6.20703 18.2814 6.60009C18.4134 6.99658 18.3057 7.42724 18.0071 7.72118L14.3891 11.2143L15.2432 16.2251C15.3127 16.6352 15.1425 17.0522 14.7953 17.2949C14.4516 17.5376 13.9967 17.5684 13.6252 17.3735L9.16684 15.0322L4.71198 17.3735C4.33698 17.5684 3.88212 17.5376 3.53837 17.2949C3.19462 17.0522 3.02101 16.6352 3.09393 16.2251L3.94809 11.2143L0.329342 7.72118C0.0303837 7.42724 -0.0758664 6.99658 0.0553836 6.60009C0.186286 6.20703 0.532467 5.91992 0.948786 5.86181L5.9342 5.1372L8.17031 0.614203C8.35434 0.237679 8.74323 -0.00134277 9.16684 -0.00134277C9.59393 -0.00134277 9.98281 0.237679 10.1668 0.614203L12.3995 5.1372Z" fill="#FF8F52"/>
</svg>
