<svg width="19" height="18" viewBox="0 0 19 18" fill="none" xmlns="http://www.w3.org/2000/svg">
<path d="M7.26116 1.38193C7.85986 -0.460691 10.4667 -0.46069 11.0654 1.38193L11.8574 3.81963C12.1252 4.64367 12.8931 5.20159 13.7596 5.20159H16.3227C18.2601 5.20159 19.0657 7.68082 17.4983 8.81963L15.4246 10.3262C14.7237 10.8355 14.4303 11.7382 14.6981 12.5623L15.4902 15C16.0889 16.8426 13.9799 18.3748 12.4125 17.236L10.3388 15.7295C9.63786 15.2202 8.68867 15.2202 7.9877 15.7295L5.91407 17.236C4.34664 18.3748 2.23768 16.8426 2.83639 15L3.62844 12.5623C3.89619 11.7382 3.60287 10.8355 2.9019 10.3262L0.828271 8.81963C-0.739156 7.68082 0.0663958 5.20159 2.00384 5.20159H4.56699C5.43344 5.20159 6.20135 4.64367 6.4691 3.81963L7.26116 1.38193Z" fill="#D9D9D9"/>
</svg>
